<?xml version="1.0" standalone="no"?><!DOCTYPE svg PUBLIC "-//W3C//DTD SVG 1.1//EN" "http://www.w3.org/Graphics/SVG/1.1/DTD/svg11.dtd"><svg t="1716131594828" class="icon" viewBox="0 0 1024 1024" version="1.1" xmlns="http://www.w3.org/2000/svg" p-id="1269" xmlns:xlink="http://www.w3.org/1999/xlink" width="200" height="200"><path d="M921.4976 768V358.4a256 256 0 0 0-256-256H406.8864a99.6864 99.6864 0 0 0-99.6864 99.6864V460.8a256 256 0 0 0 256 256h51.2a51.2 51.2 0 1 1 0 102.4h-51.2a358.4 358.4 0 0 1-358.4-358.4V202.0864A202.0864 202.0864 0 0 1 406.8352 0h258.7136a358.4 358.4 0 0 1 358.4 358.4v409.6a51.2 51.2 0 1 1-102.4 0zM102.4 256v409.6a256 256 0 0 0 256 256h258.7136A99.6864 99.6864 0 0 0 716.8 821.8624V563.2a256 256 0 0 0-256-256H409.6a51.2 51.2 0 0 1 0-102.4h51.2a358.4 358.4 0 0 1 358.4 358.4v258.7136A202.0864 202.0864 0 0 1 617.1136 1024H358.4a358.4 358.4 0 0 1-358.4-358.4V256a51.2 51.2 0 0 1 102.4 0z" fill="#000000" p-id="1270"></path></svg>