<?xml version="1.0" standalone="no"?><!DOCTYPE svg PUBLIC "-//W3C//DTD SVG 1.1//EN" "http://www.w3.org/Graphics/SVG/1.1/DTD/svg11.dtd"><svg t="1716131554689" class="icon" viewBox="0 0 1027 1024" version="1.1" xmlns="http://www.w3.org/2000/svg" p-id="1772" xmlns:xlink="http://www.w3.org/1999/xlink" width="200.5859375" height="200"><path d="M983.819802 313.320436A511.938804 511.938804 0 1 0 1023.958963 512.032213a508.648709 508.648709 0 0 0-40.139161-198.711777zM513.495716 902.855636c-215.501232 0-390.823423-175.322191-390.823423-390.823423s175.322191-390.823423 390.823423-390.823423 390.823423 175.322191 390.823423 390.823423-175.322191 390.823423-390.823423 390.823423z" fill="#273442" p-id="1773"></path><path d="M760.352552 319.661347a59.819912 59.819912 0 0 0-79.959282 27.616859L553.545147 608.023231l-71.385094-211.503267a89.670048 89.670048 0 0 0-85.014065-61.03625H292.810092a59.819912 59.819912 0 1 0 0 119.639823h82.860548L464.543089 718.410908c12.681821 37.566905 42.781207 62.322378 78.543544 64.595535 1.774657 0.11964 3.539345 0.16949 5.304032 0.16949 32.831162 0 62.481898-19.531201 78.264384-51.973534l161.324332-331.58177a59.819912 59.819912 0 0 0-27.626829-79.959282z" fill="#14AB64" p-id="1774"></path></svg>