<?xml version="1.0" standalone="no"?><!DOCTYPE svg PUBLIC "-//W3C//DTD SVG 1.1//EN" "http://www.w3.org/Graphics/SVG/1.1/DTD/svg11.dtd"><svg t="1716131599192" class="icon" viewBox="0 0 1024 1024" version="1.1" xmlns="http://www.w3.org/2000/svg" p-id="1422" xmlns:xlink="http://www.w3.org/1999/xlink" width="200" height="200"><path d="M245.248 921.6H358.4a51.2 51.2 0 1 1 0 102.4H245.248A245.248 245.248 0 0 1 0 778.752V358.4a358.4 358.4 0 0 1 358.4-358.4h420.352A245.248 245.248 0 0 1 1024 245.248V512a51.2 51.2 0 1 1-102.4 0V245.248A142.848 142.848 0 0 0 778.752 102.4H358.4a256 256 0 0 0-256 256v420.352A142.848 142.848 0 0 0 245.248 921.6zM256 358.4a51.2 51.2 0 0 0 51.2 51.2h409.6a51.2 51.2 0 1 0 0-102.4H307.2a51.2 51.2 0 0 0-51.2 51.2z m0 204.8a51.2 51.2 0 0 0 51.2 51.2h136.4992a51.2 51.2 0 1 0 0-102.4H307.2a51.2 51.2 0 0 0-51.2 51.2z m681.1136 65.6896h-0.0512L662.3744 896a4.608 4.608 0 0 1-6.656-0.2048l-105.8304-115.456a51.2 51.2 0 1 0-75.52 69.1712l105.8304 115.5072a107.0592 107.0592 0 0 0 153.5488 4.4032l274.688-267.0592 0.0512-0.0512a51.2 51.2 0 1 0-71.3728-73.4208z" fill="#000000" p-id="1423"></path></svg>