<?xml version="1.0" standalone="no"?><!DOCTYPE svg PUBLIC "-//W3C//DTD SVG 1.1//EN" "http://www.w3.org/Graphics/SVG/1.1/DTD/svg11.dtd"><svg t="1716131587297" class="icon" viewBox="0 0 1024 1024" version="1.1" xmlns="http://www.w3.org/2000/svg" p-id="967" xmlns:xlink="http://www.w3.org/1999/xlink" width="200" height="200"><path d="M0 665.6V51.2a51.2 51.2 0 1 1 102.4 0v614.4a256 256 0 0 0 256 256h420.352A142.848 142.848 0 0 0 921.6 778.752V716.8a51.2 51.2 0 1 1 102.4 0v61.952A245.248 245.248 0 0 1 778.752 1024H358.4a358.4 358.4 0 0 1-358.4-358.4zM1016.064 78.592A51.2 51.2 0 0 0 928.6656 25.2928L679.424 433.0496l-138.9568-123.5456a102.4 102.4 0 0 0-155.2896 22.8352l-172.3392 280.1152A51.2 51.2 0 0 0 300.032 666.112l172.3392-280.064 139.008 123.5968a102.4 102.4 0 0 0 155.392-23.1424l249.2416-407.8592z" fill="#000000" p-id="968"></path></svg>