<?xml version="1.0" standalone="no"?><!DOCTYPE svg PUBLIC "-//W3C//DTD SVG 1.1//EN" "http://www.w3.org/Graphics/SVG/1.1/DTD/svg11.dtd"><svg t="1716131493504" class="icon" viewBox="0 0 1024 1024" version="1.1" xmlns="http://www.w3.org/2000/svg" p-id="1009" xmlns:xlink="http://www.w3.org/1999/xlink" width="200" height="200"><path d="M964 904H120V60A60 60 0 0 0 0 60v844a120.13 120.13 0 0 0 120 120h844a60 60 0 0 0 0-120z" fill="#273442" p-id="1010"></path><path d="M186.2 844.17a60 60 0 0 0 80.11-28.67l99.1-211.12A60 60 0 0 1 438 572.72l149.61 47.78c50.79 16.21 104.44-11.41 125.75-64.35l129.13-280a60 60 0 0 0-109-50.24L629 452.49a60 60 0 0 1-72.73 32l-149.07-47.6a96.75 96.75 0 0 0-74.76 6.61c-20.9 10.92-37.58 28.7-48.24 51.42l-126.1 268.7c-14.1 30.02-1.85 66.29 28.1 80.55z" fill="#14AB64" p-id="1011"></path></svg>