<?xml version="1.0" standalone="no"?><!DOCTYPE svg PUBLIC "-//W3C//DTD SVG 1.1//EN" "http://www.w3.org/Graphics/SVG/1.1/DTD/svg11.dtd"><svg t="1716131566800" class="icon" viewBox="0 0 1024 1024" version="1.1" xmlns="http://www.w3.org/2000/svg" p-id="2074" xmlns:xlink="http://www.w3.org/1999/xlink" width="200" height="200"><path d="M963.999691 452.000106H632.449863a59.999969 59.999969 0 0 1-59.999969-60.219969l1.239999-331.549828A59.999969 59.999969 0 0 0 513.999924 0.00034h-1.999999a504.369739 504.369739 0 0 0-198.749897 40.559979A518.139732 518.139732 0 0 0 40.560169 313.250178a507.229737 507.229737 0 0 0 0 397.499794 518.139732 518.139732 0 0 0 272.689859 272.689859 507.229737 507.229737 0 0 0 397.499794 0 518.139732 518.139732 0 0 0 272.689859-272.689859A504.189739 504.189739 0 0 0 1023.99966 512.000075a59.999969 59.999969 0 0 0-59.999969-59.999969z m-72.279963 157.519919c-43.469978 169.209912-197.379898 294.609848-379.999803 294.479847-215.849888-0.15-391.809797-176.309909-391.719797-392.159797 0.07-182.929905 126.109935-336.999826 295.899847-379.919803a29.999984 29.999984 0 0 1 37.41998 29.189985L451.999956 511.770075A59.999969 59.999969 0 0 0 511.999925 572.000044h350.669819a29.999984 29.999984 0 0 1 29.049984 37.519981z" fill="#273442" p-id="2075"></path><path d="M996.339674 216.440228A352.999817 352.999817 0 0 0 810.55977 30.660324 344.109822 344.109822 0 0 0 674.999841 3.000338h-4.899998A59.999969 59.999969 0 0 0 610.999874 63.870307l4.059998 288.99985A59.999969 59.999969 0 0 0 674.929841 412.000127l288.99985 0.34a59.999969 59.999969 0 0 0 60.069969-59.999969V352.000158a344.109822 344.109822 0 0 0-27.659986-135.55993z m-262.169864 75.629961l-2.279999-161.919916A229.879881 229.879881 0 0 1 896.099726 292.260189z" fill="#14AB64" p-id="2076"></path></svg>