<?xml version="1.0" standalone="no"?><!DOCTYPE svg PUBLIC "-//W3C//DTD SVG 1.1//EN" "http://www.w3.org/Graphics/SVG/1.1/DTD/svg11.dtd"><svg t="1716131520259" class="icon" viewBox="0 0 1191 1024" version="1.1" xmlns="http://www.w3.org/2000/svg" p-id="1314" xmlns:xlink="http://www.w3.org/1999/xlink" width="232.6171875" height="200"><path d="M1102.951486 88.611961A300.555298 300.555298 0 0 0 889.017182 0.001152H302.545114A302.545114 302.545114 0 0 0 0 302.546266v418.90862a302.545114 302.545114 0 0 0 302.545114 302.545114h586.472068a302.545114 302.545114 0 0 0 302.545114-302.545114V302.546266a300.555298 300.555298 0 0 0-88.61081-213.934305zM1051.926089 564.364153v157.090733c0 89.832626-73.076281 162.908908-162.908907 162.908907H302.545114c-89.832626 0-162.908908-73.076281-162.908907-162.908907V302.546266c0-89.832626 73.076281-162.908908 162.908907-162.908907h586.472068c89.832626 0 162.908908 73.076281 162.908907 162.908907z" fill="#273442" p-id="1315"></path><path d="M139.636207 564.364153h912.289882v139.636207H139.636207zM893.671722 287.41901H764.508231a69.818103 69.818103 0 0 0-69.818103 69.818104 69.818103 69.818103 0 0 0 69.818103 69.818103h129.163491a69.818103 69.818103 0 0 0 69.818103-69.818103 69.818103 69.818103 0 0 0-69.818103-69.818104z" fill="#14AB64" p-id="1316"></path></svg>