<?xml version="1.0" standalone="no"?><!DOCTYPE svg PUBLIC "-//W3C//DTD SVG 1.1//EN" "http://www.w3.org/Graphics/SVG/1.1/DTD/svg11.dtd"><svg t="1716131560481" class="icon" viewBox="0 0 1024 1024" version="1.1" xmlns="http://www.w3.org/2000/svg" p-id="1922" xmlns:xlink="http://www.w3.org/1999/xlink" width="200" height="200"><path d="M947.849084 76.150916A258.28975 258.28975 0 0 0 763.999261 0.00099H259.999749A259.999749 259.999749 0 0 0 0 260.000739v503.999512a259.999749 259.999749 0 0 0 259.999749 259.999749h503.999512a259.999749 259.999749 0 0 0 259.999749-259.999749V260.000739a258.28975 258.28975 0 0 0-76.149926-183.849823zM903.999126 302.000698v461.999553c0 77.199925-62.799939 139.999865-139.999865 139.999865H259.999749c-77.199925 0-139.999865-62.799939-139.999865-139.999865V260.000739c0-77.199925 62.799939-139.999865 139.999865-139.999865h503.999512c77.199925 0 139.999865 62.799939 139.999865 139.999865z" fill="#273442" p-id="1923"></path><path d="M520.069497 429.000575c-53.109949 0-112.999891-28.249973-176.329829-58.169944C272.049737 337.000664 197.919809 302.000698 119.999884 302.000698v119.999884c53.109949 0 112.999891 28.249973 176.32983 58.169944C367.999644 514.000493 442.149573 549.000459 520.069497 549.000459c78.239924 0 148.699856-35.279966 216.849791-69.409933C796.05923 450.000555 851.929176 422.000582 903.999126 422.000582V302.000698c-78.239924 0-148.699856 35.279966-216.84979 69.409933C627.999393 401.000602 572.139447 429.000575 520.069497 429.000575z" fill="#14AB64" p-id="1924"></path></svg>