<?xml version="1.0" standalone="no"?><!DOCTYPE svg PUBLIC "-//W3C//DTD SVG 1.1//EN" "http://www.w3.org/Graphics/SVG/1.1/DTD/svg11.dtd"><svg t="1716131528968" class="icon" viewBox="0 0 1024 1024" version="1.1" xmlns="http://www.w3.org/2000/svg" p-id="1468" xmlns:xlink="http://www.w3.org/1999/xlink" width="200" height="200"><path d="M764 1024H260A260 260 0 0 1 0 764V260A260 260 0 0 1 260 0h504a260 260 0 0 1 260 260v504a260 260 0 0 1-260 260zM260 120c-77.2 0-140 62.8-140 140v504c0 77.2 62.8 140 140 140h504c77.2 0 140-62.8 140-140V260c0-77.2-62.8-140-140-140z" fill="#273442" p-id="1469"></path><path d="M338 772.11h340a60 60 0 0 0 60-60 60 60 0 0 0-60-60H338a60 60 0 0 0-60 60 60 60 0 0 0 60 60zM248.53 499.91a60 60 0 0 1-22.91-115.48l179.28-73.95a149 149 0 0 1 121.1 3.29 149.06 149.06 0 0 0 141-6.69l77.67-46.63a60 60 0 1 1 61.76 102.89l-133 79.81a149 149 0 0 1-141 6.7l-10-4.79a149.06 149.06 0 0 0-121.09-3.3l-129.95 53.6a59.73 59.73 0 0 1-22.86 4.55z" fill="#14AB64" p-id="1470"></path></svg>