<?xml version="1.0" standalone="no"?><!DOCTYPE svg PUBLIC "-//W3C//DTD SVG 1.1//EN" "http://www.w3.org/Graphics/SVG/1.1/DTD/svg11.dtd"><svg t="1716131543115" class="icon" viewBox="0 0 1024 1024" version="1.1" xmlns="http://www.w3.org/2000/svg" p-id="1620" xmlns:xlink="http://www.w3.org/1999/xlink" width="200" height="200"><path d="M845.965589 961.835278v-89.891148a59.927432 59.927432 0 0 0-59.927432-59.927431 59.927432 59.927432 0 0 0-59.927432 59.927431v89.891148a59.927432 59.927432 0 0 0 59.927432 59.927431 59.927432 59.927432 0 0 0 59.927432-59.927431zM1023.750302 961.835278V771.066287a59.927432 59.927432 0 0 0-59.927431-59.927432 59.927432 59.927432 0 0 0-59.927432 59.927432v190.768991a59.927432 59.927432 0 0 0 59.927432 59.927431 59.927432 59.927432 0 0 0 59.927431-59.927431z" fill="#14AB64" p-id="1621"></path><path d="M514.866529 418.493231c-115.380282 0-209.246615-93.88631-209.246616-209.246616S399.486247 0 514.866529 0s209.246615 93.88631 209.246615 209.246615S630.246811 418.493231 514.866529 418.493231z m0-298.638368a89.391752 89.391752 0 1 0 89.391752 89.391752 89.491631 89.491631 0 0 0-89.391752-89.391752zM608.253443 1024H219.983614c-59.018532 0-114.411455-23.631384-155.981117-66.549413C22.892279 915.011978 0.249698 858.700168 0.249698 798.912567c0-87.344232 33.030003-169.544692 92.997386-231.469705a318.104795 318.104795 0 0 1 101.60696-70.684405A310.414108 310.414108 0 0 1 319.862666 470.690024h373.048262a310.304241 310.304241 0 0 1 130.661777 28.60536 318.833912 318.833912 0 0 1 104.32367 77.136593 54.683781 54.683781 0 0 1-81.361476 73.071515c-40.221295-44.795755-94.785221-69.465881-153.633959-69.465881H319.862666c-115.929616 0-210.255394 98.181109-210.255394 218.874956 0 63.812727 49.520034 115.739846 110.376342 115.739846h388.269829a54.673793 54.673793 0 0 1 0 109.347587z" fill="#273442" p-id="1622"></path></svg>