<?xml version="1.0" standalone="no"?><!DOCTYPE svg PUBLIC "-//W3C//DTD SVG 1.1//EN" "http://www.w3.org/Graphics/SVG/1.1/DTD/svg11.dtd"><svg t="1718266094951" class="icon" viewBox="0 0 1024 1024" version="1.1" xmlns="http://www.w3.org/2000/svg" p-id="1806" xmlns:xlink="http://www.w3.org/1999/xlink" width="200" height="200"><path d="M682.667 102.4a102.4 102.4 0 0 1 102.4 102.4v614.4a102.4 102.4 0 0 1-102.4 102.4H341.333a102.4 102.4 0 0 1-102.4-102.4V204.8a102.4 102.4 0 0 1 102.4-102.4h341.334z m0 68.267H341.333a34.133 34.133 0 0 0-33.894 30.14l-0.239 3.993v614.4a34.133 34.133 0 0 0 30.14 33.894l3.993 0.24h341.334a34.133 34.133 0 0 0 33.894-30.14l0.239-3.994V204.8a34.133 34.133 0 0 0-30.14-33.894l-3.993-0.24z" p-id="1807"></path><path d="M614.4 238.933a34.133 34.133 0 1 0 68.267 0 34.133 34.133 0 1 0-68.267 0zM341.333 238.933a34.133 34.133 0 1 0 68.267 0 34.133 34.133 0 1 0-68.267 0zM546.133 204.8a34.133 34.133 0 0 1 0 68.267h-68.266a34.133 34.133 0 0 1 0-68.267h68.266z" p-id="1808"></path></svg>