<?xml version="1.0" standalone="no"?><!DOCTYPE svg PUBLIC "-//W3C//DTD SVG 1.1//EN" "http://www.w3.org/Graphics/SVG/1.1/DTD/svg11.dtd"><svg t="1718266090244" class="icon" viewBox="0 0 1024 1024" version="1.1" xmlns="http://www.w3.org/2000/svg" p-id="1650" xmlns:xlink="http://www.w3.org/1999/xlink" width="200" height="200"><path d="M716.8 819.2a34.133 34.133 0 0 1 0 68.267H307.2a34.133 34.133 0 0 1 0-68.267h409.6z" p-id="1651" fill="white"></path><path d="M443.733 682.667a34.133 34.133 0 0 1 34.134 34.133v102.4a34.133 34.133 0 0 1-68.267 0V716.8a34.133 34.133 0 0 1 34.133-34.133z m136.534 0A34.133 34.133 0 0 1 614.4 716.8v102.4a34.133 34.133 0 0 1-68.267 0V716.8a34.133 34.133 0 0 1 34.134-34.133z" p-id="1652" fill="white"></path><path d="M853.333 204.8a68.267 68.267 0 0 1 68.267 68.267v375.466a68.267 68.267 0 0 1-68.267 68.267H170.667a68.267 68.267 0 0 1-68.267-68.267V273.067a68.267 68.267 0 0 1 68.267-68.267h682.666z m0 68.267H170.667v375.466h682.666V273.067z" p-id="1653" fill="white"></path><path d="M341.333 341.333a34.133 34.133 0 1 0 68.267 0 34.133 34.133 0 1 0-68.267 0zM614.4 341.333a34.133 34.133 0 1 0 68.267 0 34.133 34.133 0 1 0-68.267 0zM477.867 341.333a34.133 34.133 0 1 0 68.266 0 34.133 34.133 0 1 0-68.266 0z" p-id="1654" fill="white"></path></svg>